<mxfile host="app.diagrams.net" modified="2024-01-15T16:05:37.478Z" agent="Mozilla/5.0 (Windows NT 10.0; Win64; x64) AppleWebKit/537.36 (KHTML, like Gecko) Chrome/120.0.0.0 Safari/537.36" etag="kBeVB96AhoCM5sCT5Kfu" version="22.1.18" type="device">
  <diagram id="R2lEEEUBdFMjLlhIrx00" name="Page-1">
    <mxGraphModel dx="3056" dy="2300" grid="1" gridSize="10" guides="1" tooltips="1" connect="1" arrows="1" fold="1" page="1" pageScale="1" pageWidth="850" pageHeight="1100" math="0" shadow="0" extFonts="Permanent Marker^https://fonts.googleapis.com/css?family=Permanent+Marker">
      <root>
        <mxCell id="0" />
        <mxCell id="1" parent="0" />
        <mxCell id="d9u1d6sbUUKAMXZ9Af9r-4" value="Analista" style="swimlane;childLayout=stackLayout;horizontal=1;startSize=50;horizontalStack=0;rounded=1;fontSize=14;fontStyle=0;strokeWidth=2;resizeParent=0;resizeLast=1;shadow=0;dashed=0;align=center;arcSize=4;whiteSpace=wrap;html=1;fillColor=#d5e8d4;strokeColor=#82b366;" parent="1" vertex="1">
          <mxGeometry x="-90" y="380" width="160" height="50" as="geometry" />
        </mxCell>
        <mxCell id="d9u1d6sbUUKAMXZ9Af9r-7" value="Software" style="swimlane;childLayout=stackLayout;horizontal=1;startSize=50;horizontalStack=0;rounded=1;fontSize=14;fontStyle=0;strokeWidth=2;resizeParent=0;resizeLast=1;shadow=0;dashed=0;align=center;arcSize=4;whiteSpace=wrap;html=1;fillColor=#d5e8d4;strokeColor=#82b366;" parent="1" vertex="1">
          <mxGeometry x="1382.5" y="1180" width="160" height="50" as="geometry" />
        </mxCell>
        <mxCell id="d9u1d6sbUUKAMXZ9Af9r-8" value="Informe técnico" style="swimlane;childLayout=stackLayout;horizontal=1;startSize=50;horizontalStack=0;rounded=1;fontSize=14;fontStyle=0;strokeWidth=2;resizeParent=0;resizeLast=1;shadow=0;dashed=0;align=center;arcSize=4;whiteSpace=wrap;html=1;fillColor=#d5e8d4;strokeColor=#82b366;" parent="1" vertex="1">
          <mxGeometry x="1602.5" y="1180" width="160" height="50" as="geometry" />
        </mxCell>
        <mxCell id="d9u1d6sbUUKAMXZ9Af9r-13" value="Proyecto" style="swimlane;childLayout=stackLayout;horizontal=1;startSize=50;horizontalStack=0;rounded=1;fontSize=14;fontStyle=0;strokeWidth=2;resizeParent=0;resizeLast=1;shadow=0;dashed=0;align=center;arcSize=4;whiteSpace=wrap;html=1;fillColor=#d5e8d4;strokeColor=#82b366;" parent="1" vertex="1">
          <mxGeometry x="670" y="10" width="160" height="320" as="geometry">
            <mxRectangle x="670" y="10" width="100" height="50" as="alternateBounds" />
          </mxGeometry>
        </mxCell>
        <mxCell id="d9u1d6sbUUKAMXZ9Af9r-14" value="&lt;u&gt;CodProyecto&lt;/u&gt;&lt;br&gt;&lt;br&gt;Nombre&lt;br&gt;&lt;br&gt;Cliente&lt;br&gt;&lt;br&gt;Descripción&lt;br&gt;&lt;br&gt;Presupuesto&lt;br&gt;&lt;br&gt;NºHoras&lt;br&gt;&lt;br&gt;FechaInicio&lt;br&gt;&lt;br&gt;FechaFin&lt;br&gt;&lt;br&gt;ProyectosRel&lt;br&gt;(Multivaluado)" style="align=left;strokeColor=none;fillColor=none;spacingLeft=4;fontSize=12;verticalAlign=top;resizable=0;rotatable=0;part=1;html=1;" parent="d9u1d6sbUUKAMXZ9Af9r-13" vertex="1">
          <mxGeometry y="50" width="160" height="270" as="geometry" />
        </mxCell>
        <mxCell id="d9u1d6sbUUKAMXZ9Af9r-20" value="Empleado" style="swimlane;childLayout=stackLayout;horizontal=1;startSize=50;horizontalStack=0;rounded=1;fontSize=14;fontStyle=0;strokeWidth=2;resizeParent=0;resizeLast=1;shadow=0;dashed=0;align=center;arcSize=4;whiteSpace=wrap;html=1;fillColor=#d5e8d4;strokeColor=#82b366;" parent="1" vertex="1">
          <mxGeometry x="-90" y="-120" width="160" height="220" as="geometry" />
        </mxCell>
        <mxCell id="d9u1d6sbUUKAMXZ9Af9r-21" value="&lt;u&gt;DNI&lt;/u&gt;&lt;br&gt;&lt;br&gt;Nombre&lt;br&gt;&lt;br&gt;Dirección&lt;br&gt;&lt;br&gt;Titulación&lt;br&gt;&lt;br&gt;AñoExp&lt;br&gt;&lt;br&gt;HorasPrevistas" style="align=left;strokeColor=none;fillColor=none;spacingLeft=4;fontSize=12;verticalAlign=top;resizable=0;rotatable=0;part=1;html=1;" parent="d9u1d6sbUUKAMXZ9Af9r-20" vertex="1">
          <mxGeometry y="50" width="160" height="170" as="geometry" />
        </mxCell>
        <mxCell id="d9u1d6sbUUKAMXZ9Af9r-22" value="Jefe" style="swimlane;childLayout=stackLayout;horizontal=1;startSize=50;horizontalStack=0;rounded=1;fontSize=14;fontStyle=0;strokeWidth=2;resizeParent=0;resizeLast=1;shadow=0;dashed=0;align=center;arcSize=4;whiteSpace=wrap;html=1;fillColor=#d5e8d4;strokeColor=#82b366;" parent="1" vertex="1">
          <mxGeometry x="140" y="380" width="160" height="50" as="geometry" />
        </mxCell>
        <mxCell id="d9u1d6sbUUKAMXZ9Af9r-24" value="Programador" style="swimlane;childLayout=stackLayout;horizontal=1;startSize=50;horizontalStack=0;rounded=1;fontSize=14;fontStyle=0;strokeWidth=2;resizeParent=0;resizeLast=1;shadow=0;dashed=0;align=center;arcSize=4;whiteSpace=wrap;html=1;fillColor=#d5e8d4;strokeColor=#82b366;" parent="1" vertex="1">
          <mxGeometry x="-290" y="380" width="160" height="90" as="geometry" />
        </mxCell>
        <mxCell id="d9u1d6sbUUKAMXZ9Af9r-25" value="Lenguajes&lt;br&gt;(Multivaluado)&lt;br&gt;" style="align=left;strokeColor=none;fillColor=none;spacingLeft=4;fontSize=12;verticalAlign=top;resizable=0;rotatable=0;part=1;html=1;" parent="d9u1d6sbUUKAMXZ9Af9r-24" vertex="1">
          <mxGeometry y="50" width="160" height="40" as="geometry" />
        </mxCell>
        <mxCell id="d9u1d6sbUUKAMXZ9Af9r-27" value="Producto" style="swimlane;childLayout=stackLayout;horizontal=1;startSize=50;horizontalStack=0;rounded=1;fontSize=14;fontStyle=0;strokeWidth=2;resizeParent=0;resizeLast=1;shadow=0;dashed=0;align=center;arcSize=4;whiteSpace=wrap;html=1;fillColor=#d5e8d4;strokeColor=#82b366;" parent="1" vertex="1">
          <mxGeometry x="1602.5" y="707" width="160" height="165" as="geometry" />
        </mxCell>
        <mxCell id="d9u1d6sbUUKAMXZ9Af9r-28" value="&lt;u&gt;CodProducto&lt;/u&gt;&lt;br&gt;&lt;br&gt;Nombre&lt;br&gt;&lt;br&gt;Descripción&lt;br&gt;&lt;br&gt;Estado" style="align=left;strokeColor=none;fillColor=none;spacingLeft=4;fontSize=12;verticalAlign=top;resizable=0;rotatable=0;part=1;html=1;" parent="d9u1d6sbUUKAMXZ9Af9r-27" vertex="1">
          <mxGeometry y="50" width="160" height="115" as="geometry" />
        </mxCell>
        <mxCell id="d9u1d6sbUUKAMXZ9Af9r-29" value="Producto" style="swimlane;childLayout=stackLayout;horizontal=1;startSize=50;horizontalStack=0;rounded=1;fontSize=14;fontStyle=0;strokeWidth=2;resizeParent=0;resizeLast=1;shadow=0;dashed=0;align=center;arcSize=4;whiteSpace=wrap;html=1;fillColor=#d5e8d4;strokeColor=#82b366;" parent="1" vertex="1">
          <mxGeometry x="1816.25" y="1180" width="160" height="80" as="geometry" />
        </mxCell>
        <mxCell id="d9u1d6sbUUKAMXZ9Af9r-30" value="Versión" style="align=left;strokeColor=none;fillColor=none;spacingLeft=4;fontSize=12;verticalAlign=top;resizable=0;rotatable=0;part=1;html=1;" parent="d9u1d6sbUUKAMXZ9Af9r-29" vertex="1">
          <mxGeometry y="50" width="160" height="30" as="geometry" />
        </mxCell>
        <mxCell id="d9u1d6sbUUKAMXZ9Af9r-31" value="Gasto" style="swimlane;childLayout=stackLayout;horizontal=1;startSize=50;horizontalStack=0;rounded=1;fontSize=14;fontStyle=0;strokeWidth=2;resizeParent=0;resizeLast=1;shadow=0;dashed=0;align=center;arcSize=4;whiteSpace=wrap;html=1;fillColor=#d5e8d4;strokeColor=#82b366;" parent="1" vertex="1">
          <mxGeometry x="1602.5" y="-95" width="160" height="200" as="geometry" />
        </mxCell>
        <mxCell id="d9u1d6sbUUKAMXZ9Af9r-32" value="&lt;u&gt;IDGasto&lt;/u&gt;&lt;br&gt;&lt;br&gt;Descripción&lt;br&gt;&lt;br&gt;Fecha&lt;br&gt;&lt;br&gt;Importe&lt;br&gt;&lt;br&gt;TipoGasto" style="align=left;strokeColor=none;fillColor=none;spacingLeft=4;fontSize=12;verticalAlign=top;resizable=0;rotatable=0;part=1;html=1;" parent="d9u1d6sbUUKAMXZ9Af9r-31" vertex="1">
          <mxGeometry y="50" width="160" height="150" as="geometry" />
        </mxCell>
        <mxCell id="d9u1d6sbUUKAMXZ9Af9r-33" value="" style="triangle;whiteSpace=wrap;html=1;rotation=90;fillColor=#dae8fc;strokeColor=#6c8ebf;" parent="1" vertex="1">
          <mxGeometry x="-40" y="200" width="60" height="80" as="geometry" />
        </mxCell>
        <mxCell id="d9u1d6sbUUKAMXZ9Af9r-34" value="Tipo" style="ellipse;whiteSpace=wrap;html=1;align=center;fillColor=#fff2cc;strokeColor=#d6b656;" parent="1" vertex="1">
          <mxGeometry x="70" y="170" width="100" height="40" as="geometry" />
        </mxCell>
        <mxCell id="d9u1d6sbUUKAMXZ9Af9r-35" value="" style="endArrow=none;html=1;rounded=0;exitX=0.019;exitY=0.028;exitDx=0;exitDy=0;exitPerimeter=0;entryX=0;entryY=0.5;entryDx=0;entryDy=0;" parent="1" source="d9u1d6sbUUKAMXZ9Af9r-33" target="d9u1d6sbUUKAMXZ9Af9r-34" edge="1">
          <mxGeometry width="50" height="50" relative="1" as="geometry">
            <mxPoint x="140" y="260" as="sourcePoint" />
            <mxPoint x="190" y="210" as="targetPoint" />
          </mxGeometry>
        </mxCell>
        <mxCell id="d9u1d6sbUUKAMXZ9Af9r-37" value="" style="endArrow=none;html=1;rounded=0;entryX=0.5;entryY=1;entryDx=0;entryDy=0;" parent="1" target="d9u1d6sbUUKAMXZ9Af9r-21" edge="1">
          <mxGeometry width="50" height="50" relative="1" as="geometry">
            <mxPoint x="-10" y="210" as="sourcePoint" />
            <mxPoint x="210" y="200" as="targetPoint" />
          </mxGeometry>
        </mxCell>
        <mxCell id="d9u1d6sbUUKAMXZ9Af9r-38" value="" style="endArrow=none;html=1;rounded=0;entryX=0.5;entryY=1;entryDx=0;entryDy=0;" parent="1" edge="1">
          <mxGeometry width="50" height="50" relative="1" as="geometry">
            <mxPoint x="-10.59" y="380" as="sourcePoint" />
            <mxPoint x="-10.59" y="270" as="targetPoint" />
          </mxGeometry>
        </mxCell>
        <mxCell id="d9u1d6sbUUKAMXZ9Af9r-39" value="" style="endArrow=none;html=1;rounded=0;entryX=0.5;entryY=1;entryDx=0;entryDy=0;exitX=0.5;exitY=0;exitDx=0;exitDy=0;" parent="1" source="d9u1d6sbUUKAMXZ9Af9r-24" target="d9u1d6sbUUKAMXZ9Af9r-33" edge="1">
          <mxGeometry width="50" height="50" relative="1" as="geometry">
            <mxPoint x="160" y="380" as="sourcePoint" />
            <mxPoint x="210" y="330" as="targetPoint" />
          </mxGeometry>
        </mxCell>
        <mxCell id="d9u1d6sbUUKAMXZ9Af9r-40" value="" style="endArrow=none;html=1;rounded=0;entryX=0.5;entryY=0;entryDx=0;entryDy=0;exitX=0.5;exitY=0;exitDx=0;exitDy=0;" parent="1" source="d9u1d6sbUUKAMXZ9Af9r-22" target="d9u1d6sbUUKAMXZ9Af9r-33" edge="1">
          <mxGeometry width="50" height="50" relative="1" as="geometry">
            <mxPoint x="160" y="380" as="sourcePoint" />
            <mxPoint x="210" y="330" as="targetPoint" />
          </mxGeometry>
        </mxCell>
        <mxCell id="d9u1d6sbUUKAMXZ9Af9r-43" value="Está" style="shape=rhombus;perimeter=rhombusPerimeter;whiteSpace=wrap;html=1;align=center;fillColor=#f8cecc;strokeColor=#b85450;" parent="1" vertex="1">
          <mxGeometry x="340" y="-20" width="120" height="60" as="geometry" />
        </mxCell>
        <mxCell id="d9u1d6sbUUKAMXZ9Af9r-44" value="Lidera" style="shape=rhombus;perimeter=rhombusPerimeter;whiteSpace=wrap;html=1;align=center;fillColor=#f8cecc;strokeColor=#b85450;" parent="1" vertex="1">
          <mxGeometry x="340" y="200" width="120" height="60" as="geometry" />
        </mxCell>
        <mxCell id="d9u1d6sbUUKAMXZ9Af9r-45" value="" style="endArrow=none;html=1;rounded=0;exitX=0;exitY=0.5;exitDx=0;exitDy=0;" parent="1" source="d9u1d6sbUUKAMXZ9Af9r-43" edge="1">
          <mxGeometry width="50" height="50" relative="1" as="geometry">
            <mxPoint x="430" y="280" as="sourcePoint" />
            <mxPoint x="70" y="10" as="targetPoint" />
          </mxGeometry>
        </mxCell>
        <mxCell id="d9u1d6sbUUKAMXZ9Af9r-46" value="" style="endArrow=none;html=1;rounded=0;entryX=1;entryY=0.5;entryDx=0;entryDy=0;" parent="1" target="d9u1d6sbUUKAMXZ9Af9r-43" edge="1">
          <mxGeometry width="50" height="50" relative="1" as="geometry">
            <mxPoint x="670" y="120" as="sourcePoint" />
            <mxPoint x="470" y="170" as="targetPoint" />
            <Array as="points">
              <mxPoint x="600" y="120" />
              <mxPoint x="600" y="10" />
            </Array>
          </mxGeometry>
        </mxCell>
        <mxCell id="d9u1d6sbUUKAMXZ9Af9r-48" value="" style="endArrow=none;html=1;rounded=0;entryX=0.5;entryY=1;entryDx=0;entryDy=0;" parent="1" target="d9u1d6sbUUKAMXZ9Af9r-44" edge="1">
          <mxGeometry width="50" height="50" relative="1" as="geometry">
            <mxPoint x="300" y="400" as="sourcePoint" />
            <mxPoint x="410" y="230" as="targetPoint" />
            <Array as="points">
              <mxPoint x="400" y="400" />
            </Array>
          </mxGeometry>
        </mxCell>
        <mxCell id="d9u1d6sbUUKAMXZ9Af9r-49" value="" style="endArrow=none;html=1;rounded=0;exitX=1;exitY=0.5;exitDx=0;exitDy=0;" parent="1" source="d9u1d6sbUUKAMXZ9Af9r-44" edge="1">
          <mxGeometry width="50" height="50" relative="1" as="geometry">
            <mxPoint x="430" y="130" as="sourcePoint" />
            <mxPoint x="669" y="230" as="targetPoint" />
          </mxGeometry>
        </mxCell>
        <mxCell id="d9u1d6sbUUKAMXZ9Af9r-50" value="Fase" style="swimlane;childLayout=stackLayout;horizontal=1;startSize=50;horizontalStack=0;rounded=1;fontSize=14;fontStyle=0;strokeWidth=2;resizeParent=0;resizeLast=1;shadow=0;dashed=0;align=center;arcSize=4;whiteSpace=wrap;html=1;fillColor=#d5e8d4;strokeColor=#82b366;" parent="1" vertex="1">
          <mxGeometry x="1602.5" y="210" width="160" height="200" as="geometry" />
        </mxCell>
        <mxCell id="d9u1d6sbUUKAMXZ9Af9r-51" value="&lt;u&gt;CodFase&lt;/u&gt;&lt;br&gt;&lt;br&gt;Nombre&lt;br&gt;&lt;br&gt;Descripción&lt;br&gt;&lt;br&gt;Estado" style="align=left;strokeColor=none;fillColor=none;spacingLeft=4;fontSize=12;verticalAlign=top;resizable=0;rotatable=0;part=1;html=1;" parent="d9u1d6sbUUKAMXZ9Af9r-50" vertex="1">
          <mxGeometry y="50" width="160" height="150" as="geometry" />
        </mxCell>
        <mxCell id="d9u1d6sbUUKAMXZ9Af9r-54" value="" style="endArrow=none;html=1;rounded=0;exitX=0;exitY=0.5;exitDx=0;exitDy=0;" parent="1" edge="1" source="d9u1d6sbUUKAMXZ9Af9r-57">
          <mxGeometry width="50" height="50" relative="1" as="geometry">
            <mxPoint x="1160" y="190" as="sourcePoint" />
            <mxPoint x="830" y="230" as="targetPoint" />
          </mxGeometry>
        </mxCell>
        <mxCell id="d9u1d6sbUUKAMXZ9Af9r-57" value="Compone" style="shape=rhombus;perimeter=rhombusPerimeter;whiteSpace=wrap;html=1;align=center;fillColor=#f8cecc;strokeColor=#b85450;" parent="1" vertex="1">
          <mxGeometry x="1139" y="200" width="120" height="60" as="geometry" />
        </mxCell>
        <mxCell id="d9u1d6sbUUKAMXZ9Af9r-58" value="" style="endArrow=none;html=1;rounded=0;entryX=1;entryY=0.5;entryDx=0;entryDy=0;exitX=0;exitY=0.5;exitDx=0;exitDy=0;" parent="1" source="d9u1d6sbUUKAMXZ9Af9r-51" edge="1" target="d9u1d6sbUUKAMXZ9Af9r-57">
          <mxGeometry width="50" height="50" relative="1" as="geometry">
            <mxPoint x="1570" y="220" as="sourcePoint" />
            <mxPoint x="1275" y="189.41" as="targetPoint" />
            <Array as="points">
              <mxPoint x="1480" y="335" />
              <mxPoint x="1480" y="230" />
            </Array>
          </mxGeometry>
        </mxCell>
        <mxCell id="d9u1d6sbUUKAMXZ9Af9r-60" value="" style="triangle;whiteSpace=wrap;html=1;rotation=90;fillColor=#dae8fc;strokeColor=#6c8ebf;" parent="1" vertex="1">
          <mxGeometry x="1652.5" y="1000" width="60" height="80" as="geometry" />
        </mxCell>
        <mxCell id="d9u1d6sbUUKAMXZ9Af9r-61" value="" style="endArrow=none;html=1;rounded=0;entryX=0.5;entryY=1;entryDx=0;entryDy=0;exitX=0;exitY=0.5;exitDx=0;exitDy=0;" parent="1" edge="1" target="d9u1d6sbUUKAMXZ9Af9r-28" source="d9u1d6sbUUKAMXZ9Af9r-60">
          <mxGeometry width="50" height="50" relative="1" as="geometry">
            <mxPoint x="1690.25" y="1010" as="sourcePoint" />
            <mxPoint x="1690.5900000000001" y="890" as="targetPoint" />
          </mxGeometry>
        </mxCell>
        <mxCell id="d9u1d6sbUUKAMXZ9Af9r-63" value="" style="endArrow=none;html=1;rounded=0;entryX=1;entryY=0.5;entryDx=0;entryDy=0;exitX=0.5;exitY=0;exitDx=0;exitDy=0;" parent="1" edge="1" target="d9u1d6sbUUKAMXZ9Af9r-60" source="d9u1d6sbUUKAMXZ9Af9r-8">
          <mxGeometry width="50" height="50" relative="1" as="geometry">
            <mxPoint x="1690.42" y="1180" as="sourcePoint" />
            <mxPoint x="1690.42" y="1070" as="targetPoint" />
          </mxGeometry>
        </mxCell>
        <mxCell id="d9u1d6sbUUKAMXZ9Af9r-64" value="Tipo" style="ellipse;whiteSpace=wrap;html=1;align=center;fillColor=#fff2cc;strokeColor=#d6b656;" parent="1" vertex="1">
          <mxGeometry x="1781.25" y="960" width="100" height="40" as="geometry" />
        </mxCell>
        <mxCell id="d9u1d6sbUUKAMXZ9Af9r-65" value="" style="endArrow=none;html=1;rounded=0;exitX=0.026;exitY=0.015;exitDx=0;exitDy=0;exitPerimeter=0;entryX=0;entryY=0.5;entryDx=0;entryDy=0;" parent="1" target="d9u1d6sbUUKAMXZ9Af9r-64" edge="1" source="d9u1d6sbUUKAMXZ9Af9r-60">
          <mxGeometry width="50" height="50" relative="1" as="geometry">
            <mxPoint x="1731.25" y="1011" as="sourcePoint" />
            <mxPoint x="1773.25" y="990" as="targetPoint" />
          </mxGeometry>
        </mxCell>
        <mxCell id="KPmc_VZYhiLET4XdZnXk-2" value="Genera" style="shape=rhombus;perimeter=rhombusPerimeter;whiteSpace=wrap;html=1;align=center;fillColor=#f8cecc;strokeColor=#b85450;" vertex="1" parent="1">
          <mxGeometry x="1140" y="99" width="120" height="60" as="geometry" />
        </mxCell>
        <mxCell id="KPmc_VZYhiLET4XdZnXk-3" value="" style="endArrow=none;html=1;rounded=0;exitX=0;exitY=0.5;exitDx=0;exitDy=0;entryX=1;entryY=0.25;entryDx=0;entryDy=0;" edge="1" parent="1" source="KPmc_VZYhiLET4XdZnXk-2" target="d9u1d6sbUUKAMXZ9Af9r-14">
          <mxGeometry width="50" height="50" relative="1" as="geometry">
            <mxPoint x="1149" y="100" as="sourcePoint" />
            <mxPoint x="945" y="70" as="targetPoint" />
          </mxGeometry>
        </mxCell>
        <mxCell id="KPmc_VZYhiLET4XdZnXk-4" value="" style="endArrow=none;html=1;rounded=0;entryX=1;entryY=0.5;entryDx=0;entryDy=0;exitX=0;exitY=0.5;exitDx=0;exitDy=0;" edge="1" parent="1" source="d9u1d6sbUUKAMXZ9Af9r-32" target="KPmc_VZYhiLET4XdZnXk-2">
          <mxGeometry width="50" height="50" relative="1" as="geometry">
            <mxPoint x="1600" y="40" as="sourcePoint" />
            <mxPoint x="1280" y="350" as="targetPoint" />
            <Array as="points">
              <mxPoint x="1480" y="30" />
              <mxPoint x="1480" y="130" />
            </Array>
          </mxGeometry>
        </mxCell>
        <mxCell id="KPmc_VZYhiLET4XdZnXk-5" value="HorasPrevistas" style="ellipse;whiteSpace=wrap;html=1;align=center;fillColor=#fff2cc;strokeColor=#d6b656;" vertex="1" parent="1">
          <mxGeometry x="460" y="150" width="100" height="40" as="geometry" />
        </mxCell>
        <mxCell id="KPmc_VZYhiLET4XdZnXk-6" value="" style="endArrow=none;html=1;rounded=0;exitX=1;exitY=0;exitDx=0;exitDy=0;entryX=0;entryY=0.5;entryDx=0;entryDy=0;" edge="1" parent="1" source="d9u1d6sbUUKAMXZ9Af9r-44" target="KPmc_VZYhiLET4XdZnXk-5">
          <mxGeometry width="50" height="50" relative="1" as="geometry">
            <mxPoint x="510" y="300" as="sourcePoint" />
            <mxPoint x="560" y="250" as="targetPoint" />
          </mxGeometry>
        </mxCell>
        <mxCell id="KPmc_VZYhiLET4XdZnXk-8" value="" style="endArrow=none;html=1;rounded=0;exitX=0;exitY=0.5;exitDx=0;exitDy=0;" edge="1" parent="1" source="KPmc_VZYhiLET4XdZnXk-9">
          <mxGeometry width="50" height="50" relative="1" as="geometry">
            <mxPoint x="340" y="633" as="sourcePoint" />
            <mxPoint x="-11" y="430" as="targetPoint" />
            <Array as="points">
              <mxPoint x="-10" y="811" />
            </Array>
          </mxGeometry>
        </mxCell>
        <mxCell id="KPmc_VZYhiLET4XdZnXk-9" value="Gestiona" style="shape=rhombus;perimeter=rhombusPerimeter;whiteSpace=wrap;html=1;align=center;fillColor=#f8cecc;strokeColor=#b85450;" vertex="1" parent="1">
          <mxGeometry x="340" y="781" width="120" height="60" as="geometry" />
        </mxCell>
        <mxCell id="KPmc_VZYhiLET4XdZnXk-14" value="N:M" style="text;html=1;strokeColor=none;fillColor=none;align=center;verticalAlign=middle;whiteSpace=wrap;rounded=0;" vertex="1" parent="1">
          <mxGeometry x="370" y="-50" width="60" height="30" as="geometry" />
        </mxCell>
        <mxCell id="KPmc_VZYhiLET4XdZnXk-15" value="(1,N)" style="text;html=1;strokeColor=none;fillColor=none;align=center;verticalAlign=middle;whiteSpace=wrap;rounded=0;" vertex="1" parent="1">
          <mxGeometry x="70" y="-20" width="60" height="30" as="geometry" />
        </mxCell>
        <mxCell id="KPmc_VZYhiLET4XdZnXk-16" value="(0,M)" style="text;html=1;strokeColor=none;fillColor=none;align=center;verticalAlign=middle;whiteSpace=wrap;rounded=0;" vertex="1" parent="1">
          <mxGeometry x="620" y="90" width="60" height="30" as="geometry" />
        </mxCell>
        <mxCell id="KPmc_VZYhiLET4XdZnXk-17" value="1:N" style="text;html=1;strokeColor=none;fillColor=none;align=center;verticalAlign=middle;whiteSpace=wrap;rounded=0;" vertex="1" parent="1">
          <mxGeometry x="370" y="170" width="60" height="30" as="geometry" />
        </mxCell>
        <mxCell id="KPmc_VZYhiLET4XdZnXk-18" value="(1,1)" style="text;html=1;strokeColor=none;fillColor=none;align=center;verticalAlign=middle;whiteSpace=wrap;rounded=0;" vertex="1" parent="1">
          <mxGeometry x="300" y="370" width="60" height="30" as="geometry" />
        </mxCell>
        <mxCell id="KPmc_VZYhiLET4XdZnXk-19" value="(1,N)" style="text;html=1;strokeColor=none;fillColor=none;align=center;verticalAlign=middle;whiteSpace=wrap;rounded=0;" vertex="1" parent="1">
          <mxGeometry x="620" y="200" width="60" height="30" as="geometry" />
        </mxCell>
        <mxCell id="KPmc_VZYhiLET4XdZnXk-20" value="1:N" style="text;html=1;strokeColor=none;fillColor=none;align=center;verticalAlign=middle;whiteSpace=wrap;rounded=0;" vertex="1" parent="1">
          <mxGeometry x="1169" y="69" width="60" height="30" as="geometry" />
        </mxCell>
        <mxCell id="KPmc_VZYhiLET4XdZnXk-21" value="1:N" style="text;html=1;strokeColor=none;fillColor=none;align=center;verticalAlign=middle;whiteSpace=wrap;rounded=0;" vertex="1" parent="1">
          <mxGeometry x="1169" y="170" width="60" height="30" as="geometry" />
        </mxCell>
        <mxCell id="KPmc_VZYhiLET4XdZnXk-23" value="(1,N)" style="text;html=1;strokeColor=none;fillColor=none;align=center;verticalAlign=middle;whiteSpace=wrap;rounded=0;" vertex="1" parent="1">
          <mxGeometry x="1540" width="60" height="30" as="geometry" />
        </mxCell>
        <mxCell id="KPmc_VZYhiLET4XdZnXk-24" value="(1,1)" style="text;html=1;strokeColor=none;fillColor=none;align=center;verticalAlign=middle;whiteSpace=wrap;rounded=0;" vertex="1" parent="1">
          <mxGeometry x="820" y="90" width="60" height="30" as="geometry" />
        </mxCell>
        <mxCell id="KPmc_VZYhiLET4XdZnXk-25" value="(1,1)" style="text;html=1;strokeColor=none;fillColor=none;align=center;verticalAlign=middle;whiteSpace=wrap;rounded=0;" vertex="1" parent="1">
          <mxGeometry x="820" y="200" width="60" height="30" as="geometry" />
        </mxCell>
        <mxCell id="KPmc_VZYhiLET4XdZnXk-26" value="(1,N)" style="text;html=1;strokeColor=none;fillColor=none;align=center;verticalAlign=middle;whiteSpace=wrap;rounded=0;" vertex="1" parent="1">
          <mxGeometry x="1542.5" y="300" width="60" height="30" as="geometry" />
        </mxCell>
        <mxCell id="KPmc_VZYhiLET4XdZnXk-27" value="" style="endArrow=none;html=1;rounded=0;entryX=0.5;entryY=1;entryDx=0;entryDy=0;exitX=0.5;exitY=0;exitDx=0;exitDy=0;" edge="1" parent="1" source="KPmc_VZYhiLET4XdZnXk-28">
          <mxGeometry width="50" height="50" relative="1" as="geometry">
            <mxPoint x="1681.97" y="525" as="sourcePoint" />
            <mxPoint x="1682.14" y="410" as="targetPoint" />
          </mxGeometry>
        </mxCell>
        <mxCell id="KPmc_VZYhiLET4XdZnXk-28" value="Genera" style="shape=rhombus;perimeter=rhombusPerimeter;whiteSpace=wrap;html=1;align=center;fillColor=#f8cecc;strokeColor=#b85450;" vertex="1" parent="1">
          <mxGeometry x="1622.5" y="530" width="120" height="60" as="geometry" />
        </mxCell>
        <mxCell id="KPmc_VZYhiLET4XdZnXk-30" value="" style="endArrow=none;html=1;rounded=0;entryX=0.5;entryY=1;entryDx=0;entryDy=0;exitX=0;exitY=1;exitDx=0;exitDy=0;" edge="1" parent="1" source="KPmc_VZYhiLET4XdZnXk-33">
          <mxGeometry width="50" height="50" relative="1" as="geometry">
            <mxPoint x="1682.83" y="710" as="sourcePoint" />
            <mxPoint x="1681.97" y="590" as="targetPoint" />
          </mxGeometry>
        </mxCell>
        <mxCell id="KPmc_VZYhiLET4XdZnXk-31" value="N:M" style="text;html=1;strokeColor=none;fillColor=none;align=center;verticalAlign=middle;whiteSpace=wrap;rounded=0;" vertex="1" parent="1">
          <mxGeometry x="1742.5" y="545" width="60" height="30" as="geometry" />
        </mxCell>
        <mxCell id="KPmc_VZYhiLET4XdZnXk-32" value="(1,N)" style="text;html=1;strokeColor=none;fillColor=none;align=center;verticalAlign=middle;whiteSpace=wrap;rounded=0;" vertex="1" parent="1">
          <mxGeometry x="1682.5" y="410" width="60" height="30" as="geometry" />
        </mxCell>
        <mxCell id="KPmc_VZYhiLET4XdZnXk-33" value="(0,M)" style="text;html=1;strokeColor=none;fillColor=none;align=center;verticalAlign=middle;whiteSpace=wrap;rounded=0;" vertex="1" parent="1">
          <mxGeometry x="1680" y="680" width="60" height="30" as="geometry" />
        </mxCell>
        <mxCell id="KPmc_VZYhiLET4XdZnXk-34" value="" style="endArrow=none;html=1;rounded=0;entryX=0.5;entryY=1;entryDx=0;entryDy=0;exitX=0.5;exitY=0;exitDx=0;exitDy=0;" edge="1" parent="1" source="d9u1d6sbUUKAMXZ9Af9r-7" target="d9u1d6sbUUKAMXZ9Af9r-60">
          <mxGeometry width="50" height="50" relative="1" as="geometry">
            <mxPoint x="1540" y="1050" as="sourcePoint" />
            <mxPoint x="1590" y="1000" as="targetPoint" />
          </mxGeometry>
        </mxCell>
        <mxCell id="KPmc_VZYhiLET4XdZnXk-35" value="" style="endArrow=none;html=1;rounded=0;entryX=0.5;entryY=0;entryDx=0;entryDy=0;exitX=0.5;exitY=0;exitDx=0;exitDy=0;" edge="1" parent="1" source="d9u1d6sbUUKAMXZ9Af9r-29" target="d9u1d6sbUUKAMXZ9Af9r-60">
          <mxGeometry width="50" height="50" relative="1" as="geometry">
            <mxPoint x="1540" y="1050" as="sourcePoint" />
            <mxPoint x="1590" y="1000" as="targetPoint" />
          </mxGeometry>
        </mxCell>
        <mxCell id="KPmc_VZYhiLET4XdZnXk-36" value="" style="endArrow=none;html=1;rounded=0;exitX=1;exitY=0.5;exitDx=0;exitDy=0;entryX=0;entryY=0.5;entryDx=0;entryDy=0;" edge="1" parent="1" source="KPmc_VZYhiLET4XdZnXk-9" target="d9u1d6sbUUKAMXZ9Af9r-28">
          <mxGeometry width="50" height="50" relative="1" as="geometry">
            <mxPoint x="680" y="730" as="sourcePoint" />
            <mxPoint x="730" y="680" as="targetPoint" />
          </mxGeometry>
        </mxCell>
        <mxCell id="KPmc_VZYhiLET4XdZnXk-38" value="1:N" style="text;html=1;strokeColor=none;fillColor=none;align=center;verticalAlign=middle;whiteSpace=wrap;rounded=0;" vertex="1" parent="1">
          <mxGeometry x="370" y="751" width="60" height="30" as="geometry" />
        </mxCell>
        <mxCell id="KPmc_VZYhiLET4XdZnXk-39" value="(1,1)" style="text;html=1;strokeColor=none;fillColor=none;align=center;verticalAlign=middle;whiteSpace=wrap;rounded=0;" vertex="1" parent="1">
          <mxGeometry x="-60" y="430" width="60" height="30" as="geometry" />
        </mxCell>
        <mxCell id="KPmc_VZYhiLET4XdZnXk-40" value="(1,N)" style="text;html=1;strokeColor=none;fillColor=none;align=center;verticalAlign=middle;whiteSpace=wrap;rounded=0;" vertex="1" parent="1">
          <mxGeometry x="1530" y="774.5" width="60" height="30" as="geometry" />
        </mxCell>
      </root>
    </mxGraphModel>
  </diagram>
</mxfile>
